<mxfile host="app.diagrams.net" modified="2022-05-05T14:35:18.301Z" agent="5.0 (Windows NT 10.0; Win64; x64) AppleWebKit/537.36 (KHTML, like Gecko) Chrome/101.0.4951.41 Safari/537.36 Edg/101.0.1210.32" etag="RexOG1Vloftdf9uV3duU" version="17.5.1" type="github">
  <diagram id="bAbn8hl5mbLafxKMVpMg" name="Page-1">
    <mxGraphModel dx="1038" dy="579" grid="1" gridSize="10" guides="1" tooltips="1" connect="1" arrows="1" fold="1" page="1" pageScale="1" pageWidth="850" pageHeight="1100" math="0" shadow="0">
      <root>
        <mxCell id="0" />
        <mxCell id="1" parent="0" />
        <mxCell id="crel0HZ4IlPv2Bj97w2c-12" value="" style="edgeStyle=orthogonalEdgeStyle;rounded=0;orthogonalLoop=1;jettySize=auto;html=1;" parent="1" source="p3mFZ6XsDzNMiNJtrRee-1" target="crel0HZ4IlPv2Bj97w2c-11" edge="1">
          <mxGeometry relative="1" as="geometry" />
        </mxCell>
        <mxCell id="p3mFZ6XsDzNMiNJtrRee-1" value="calculate the goal distance vector" style="whiteSpace=wrap;html=1;rounded=0;" parent="1" vertex="1">
          <mxGeometry x="30" y="220" width="120" height="60" as="geometry" />
        </mxCell>
        <mxCell id="crel0HZ4IlPv2Bj97w2c-18" value="no" style="edgeStyle=orthogonalEdgeStyle;rounded=0;orthogonalLoop=1;jettySize=auto;html=1;" parent="1" source="p3mFZ6XsDzNMiNJtrRee-6" target="p3mFZ6XsDzNMiNJtrRee-9" edge="1">
          <mxGeometry relative="1" as="geometry" />
        </mxCell>
        <mxCell id="p3mFZ6XsDzNMiNJtrRee-6" value="IF target distance &amp;gt; 1.8" style="rhombus;whiteSpace=wrap;html=1;rounded=0;" parent="1" vertex="1">
          <mxGeometry x="50" y="500" width="80" height="80" as="geometry" />
        </mxCell>
        <mxCell id="p3mFZ6XsDzNMiNJtrRee-7" value="yes" style="edgeStyle=orthogonalEdgeStyle;rounded=0;orthogonalLoop=1;jettySize=auto;html=1;" parent="1" source="p3mFZ6XsDzNMiNJtrRee-6" target="p3mFZ6XsDzNMiNJtrRee-8" edge="1">
          <mxGeometry relative="1" as="geometry" />
        </mxCell>
        <mxCell id="p3mFZ6XsDzNMiNJtrRee-8" value="goal vector normalize" style="rounded=1;whiteSpace=wrap;html=1;fillColor=#ffcc99;strokeColor=#36393d;" parent="1" vertex="1">
          <mxGeometry x="195" y="510" width="120" height="60" as="geometry" />
        </mxCell>
        <mxCell id="H6gOkYiSv2kV4Y3ZF9n0-14" value="" style="edgeStyle=orthogonalEdgeStyle;rounded=0;orthogonalLoop=1;jettySize=auto;html=1;" edge="1" parent="1" source="p3mFZ6XsDzNMiNJtrRee-9" target="crel0HZ4IlPv2Bj97w2c-21">
          <mxGeometry relative="1" as="geometry" />
        </mxCell>
        <mxCell id="p3mFZ6XsDzNMiNJtrRee-9" value="ELSE" style="rhombus;whiteSpace=wrap;html=1;rounded=0;" parent="1" vertex="1">
          <mxGeometry x="50" y="620" width="80" height="80" as="geometry" />
        </mxCell>
        <mxCell id="H6gOkYiSv2kV4Y3ZF9n0-9" value="" style="edgeStyle=orthogonalEdgeStyle;rounded=0;orthogonalLoop=1;jettySize=auto;html=1;" edge="1" parent="1" source="crel0HZ4IlPv2Bj97w2c-6" target="p3mFZ6XsDzNMiNJtrRee-1">
          <mxGeometry relative="1" as="geometry" />
        </mxCell>
        <mxCell id="crel0HZ4IlPv2Bj97w2c-6" value="get the agent id and initialize the position&lt;br&gt;array" style="rounded=0;whiteSpace=wrap;html=1;" parent="1" vertex="1">
          <mxGeometry x="30" y="120" width="120" height="60" as="geometry" />
        </mxCell>
        <mxCell id="H6gOkYiSv2kV4Y3ZF9n0-11" value="" style="edgeStyle=orthogonalEdgeStyle;rounded=0;orthogonalLoop=1;jettySize=auto;html=1;" edge="1" parent="1" source="crel0HZ4IlPv2Bj97w2c-11" target="H6gOkYiSv2kV4Y3ZF9n0-10">
          <mxGeometry relative="1" as="geometry" />
        </mxCell>
        <mxCell id="crel0HZ4IlPv2Bj97w2c-11" value="construct the current position object" style="whiteSpace=wrap;html=1;rounded=0;" parent="1" vertex="1">
          <mxGeometry x="30" y="310" width="120" height="60" as="geometry" />
        </mxCell>
        <mxCell id="H6gOkYiSv2kV4Y3ZF9n0-16" style="edgeStyle=orthogonalEdgeStyle;rounded=0;orthogonalLoop=1;jettySize=auto;html=1;entryX=0.5;entryY=0;entryDx=0;entryDy=0;" edge="1" parent="1" source="crel0HZ4IlPv2Bj97w2c-21" target="H6gOkYiSv2kV4Y3ZF9n0-15">
          <mxGeometry relative="1" as="geometry" />
        </mxCell>
        <mxCell id="crel0HZ4IlPv2Bj97w2c-21" value="call destination reach&amp;nbsp;" style="rounded=1;whiteSpace=wrap;html=1;fillColor=#f8cecc;gradientColor=#ea6b66;strokeColor=#b85450;" parent="1" vertex="1">
          <mxGeometry x="180" y="630" width="120" height="60" as="geometry" />
        </mxCell>
        <mxCell id="H6gOkYiSv2kV4Y3ZF9n0-8" value="" style="edgeStyle=orthogonalEdgeStyle;rounded=0;orthogonalLoop=1;jettySize=auto;html=1;" edge="1" parent="1" source="H6gOkYiSv2kV4Y3ZF9n0-1" target="crel0HZ4IlPv2Bj97w2c-6">
          <mxGeometry relative="1" as="geometry" />
        </mxCell>
        <mxCell id="H6gOkYiSv2kV4Y3ZF9n0-1" value="start" style="rounded=1;whiteSpace=wrap;html=1;" vertex="1" parent="1">
          <mxGeometry x="45" y="50" width="90" height="20" as="geometry" />
        </mxCell>
        <mxCell id="H6gOkYiSv2kV4Y3ZF9n0-13" value="" style="edgeStyle=orthogonalEdgeStyle;rounded=0;orthogonalLoop=1;jettySize=auto;html=1;" edge="1" parent="1" source="H6gOkYiSv2kV4Y3ZF9n0-10" target="p3mFZ6XsDzNMiNJtrRee-6">
          <mxGeometry relative="1" as="geometry" />
        </mxCell>
        <mxCell id="H6gOkYiSv2kV4Y3ZF9n0-10" value="set the target agent distance" style="whiteSpace=wrap;html=1;rounded=0;" vertex="1" parent="1">
          <mxGeometry x="30" y="400" width="120" height="60" as="geometry" />
        </mxCell>
        <mxCell id="H6gOkYiSv2kV4Y3ZF9n0-18" value="" style="edgeStyle=orthogonalEdgeStyle;rounded=0;orthogonalLoop=1;jettySize=auto;html=1;" edge="1" parent="1" source="H6gOkYiSv2kV4Y3ZF9n0-15" target="H6gOkYiSv2kV4Y3ZF9n0-17">
          <mxGeometry relative="1" as="geometry" />
        </mxCell>
        <mxCell id="H6gOkYiSv2kV4Y3ZF9n0-15" value="construct the truck position array" style="whiteSpace=wrap;html=1;rounded=0;" vertex="1" parent="1">
          <mxGeometry x="340" y="50" width="120" height="60" as="geometry" />
        </mxCell>
        <mxCell id="H6gOkYiSv2kV4Y3ZF9n0-20" value="" style="edgeStyle=orthogonalEdgeStyle;rounded=0;orthogonalLoop=1;jettySize=auto;html=1;" edge="1" parent="1" source="H6gOkYiSv2kV4Y3ZF9n0-17" target="H6gOkYiSv2kV4Y3ZF9n0-19">
          <mxGeometry relative="1" as="geometry" />
        </mxCell>
        <mxCell id="H6gOkYiSv2kV4Y3ZF9n0-17" value="call&amp;nbsp;setAgentPref&lt;br&gt;Velocity" style="rounded=1;whiteSpace=wrap;html=1;fillColor=#ffcc99;strokeColor=#36393d;" vertex="1" parent="1">
          <mxGeometry x="340" y="140" width="120" height="60" as="geometry" />
        </mxCell>
        <mxCell id="H6gOkYiSv2kV4Y3ZF9n0-22" value="" style="edgeStyle=orthogonalEdgeStyle;rounded=0;orthogonalLoop=1;jettySize=auto;html=1;" edge="1" parent="1" source="H6gOkYiSv2kV4Y3ZF9n0-19" target="H6gOkYiSv2kV4Y3ZF9n0-21">
          <mxGeometry relative="1" as="geometry" />
        </mxCell>
        <mxCell id="H6gOkYiSv2kV4Y3ZF9n0-19" value="call vehicle rect polygon" style="rounded=1;whiteSpace=wrap;html=1;fillColor=#f8cecc;gradientColor=#ea6b66;strokeColor=#b85450;" vertex="1" parent="1">
          <mxGeometry x="340" y="230" width="120" height="60" as="geometry" />
        </mxCell>
        <mxCell id="H6gOkYiSv2kV4Y3ZF9n0-24" value="" style="edgeStyle=orthogonalEdgeStyle;rounded=0;orthogonalLoop=1;jettySize=auto;html=1;" edge="1" parent="1" source="H6gOkYiSv2kV4Y3ZF9n0-21" target="H6gOkYiSv2kV4Y3ZF9n0-23">
          <mxGeometry relative="1" as="geometry" />
        </mxCell>
        <mxCell id="H6gOkYiSv2kV4Y3ZF9n0-21" value="load the vehicle boundary polygon" style="rounded=1;whiteSpace=wrap;html=1;fillColor=#ffcc99;strokeColor=#36393d;" vertex="1" parent="1">
          <mxGeometry x="340" y="330" width="120" height="60" as="geometry" />
        </mxCell>
        <mxCell id="H6gOkYiSv2kV4Y3ZF9n0-26" value="" style="edgeStyle=orthogonalEdgeStyle;rounded=0;orthogonalLoop=1;jettySize=auto;html=1;" edge="1" parent="1" source="H6gOkYiSv2kV4Y3ZF9n0-23" target="H6gOkYiSv2kV4Y3ZF9n0-25">
          <mxGeometry relative="1" as="geometry" />
        </mxCell>
        <mxCell id="H6gOkYiSv2kV4Y3ZF9n0-23" value="IF identify target function not undefined" style="rhombus;whiteSpace=wrap;html=1;" vertex="1" parent="1">
          <mxGeometry x="360" y="430" width="80" height="80" as="geometry" />
        </mxCell>
        <mxCell id="H6gOkYiSv2kV4Y3ZF9n0-28" style="edgeStyle=orthogonalEdgeStyle;rounded=0;orthogonalLoop=1;jettySize=auto;html=1;entryX=0.5;entryY=0;entryDx=0;entryDy=0;" edge="1" parent="1" source="H6gOkYiSv2kV4Y3ZF9n0-25" target="H6gOkYiSv2kV4Y3ZF9n0-27">
          <mxGeometry relative="1" as="geometry" />
        </mxCell>
        <mxCell id="H6gOkYiSv2kV4Y3ZF9n0-25" value="call&amp;nbsp;identifyTargetAgent" style="rounded=1;whiteSpace=wrap;html=1;fillColor=#f8cecc;gradientColor=#ea6b66;strokeColor=#b85450;" vertex="1" parent="1">
          <mxGeometry x="340" y="540" width="120" height="60" as="geometry" />
        </mxCell>
        <mxCell id="H6gOkYiSv2kV4Y3ZF9n0-30" value="" style="edgeStyle=orthogonalEdgeStyle;rounded=0;orthogonalLoop=1;jettySize=auto;html=1;" edge="1" parent="1" source="H6gOkYiSv2kV4Y3ZF9n0-27" target="H6gOkYiSv2kV4Y3ZF9n0-29">
          <mxGeometry relative="1" as="geometry" />
        </mxCell>
        <mxCell id="H6gOkYiSv2kV4Y3ZF9n0-27" value="IF current point is signal" style="rhombus;whiteSpace=wrap;html=1;" vertex="1" parent="1">
          <mxGeometry x="550" y="60" width="80" height="80" as="geometry" />
        </mxCell>
        <mxCell id="H6gOkYiSv2kV4Y3ZF9n0-32" value="" style="edgeStyle=orthogonalEdgeStyle;rounded=0;orthogonalLoop=1;jettySize=auto;html=1;" edge="1" parent="1" source="H6gOkYiSv2kV4Y3ZF9n0-29">
          <mxGeometry relative="1" as="geometry">
            <mxPoint x="590" y="280" as="targetPoint" />
          </mxGeometry>
        </mxCell>
        <mxCell id="H6gOkYiSv2kV4Y3ZF9n0-29" value="call&amp;nbsp;checkSignalStatus" style="rounded=1;whiteSpace=wrap;html=1;fillColor=#f8cecc;gradientColor=#ea6b66;strokeColor=#b85450;" vertex="1" parent="1">
          <mxGeometry x="530" y="180" width="120" height="60" as="geometry" />
        </mxCell>
        <mxCell id="H6gOkYiSv2kV4Y3ZF9n0-35" value="" style="edgeStyle=orthogonalEdgeStyle;rounded=0;orthogonalLoop=1;jettySize=auto;html=1;" edge="1" parent="1" source="H6gOkYiSv2kV4Y3ZF9n0-33" target="H6gOkYiSv2kV4Y3ZF9n0-34">
          <mxGeometry relative="1" as="geometry" />
        </mxCell>
        <mxCell id="H6gOkYiSv2kV4Y3ZF9n0-33" value="return positon" style="rounded=0;whiteSpace=wrap;html=1;" vertex="1" parent="1">
          <mxGeometry x="530" y="280" width="120" height="60" as="geometry" />
        </mxCell>
        <mxCell id="H6gOkYiSv2kV4Y3ZF9n0-34" value="end" style="ellipse;whiteSpace=wrap;html=1;rounded=0;" vertex="1" parent="1">
          <mxGeometry x="530" y="380" width="120" height="60" as="geometry" />
        </mxCell>
      </root>
    </mxGraphModel>
  </diagram>
</mxfile>
